<?xml version="1.0" encoding="UTF-8"?>
<!DOCTYPE svg PUBLIC "-//W3C//DTD SVG 1.1//EN" "http://www.w3.org/Graphics/SVG/1.1/DTD/svg11.dtd">
<!-- Creator: CorelDRAW 2017 -->
<svg xmlns="http://www.w3.org/2000/svg" xml:space="preserve" width="297mm" height="210mm" version="1.1" style="shape-rendering:geometricPrecision; text-rendering:geometricPrecision; image-rendering:optimizeQuality; fill-rule:evenodd; clip-rule:evenodd"
viewBox="0 0 29700 21000"
 xmlns:xlink="http://www.w3.org/1999/xlink">
 <defs>
  <style type="text/css">
   <![CDATA[
    .str0 {stroke:#65C700;stroke-width:7.62}
    .str1 {stroke:#FFB61A;stroke-width:7.62}
    .fil1 {fill:#65C700}
    .fil0 {fill:#FFB61A}
   ]]>
  </style>
 </defs>
 <g id="Слой_x0020_1">
  <metadata id="CorelCorpID_0Corel-Layer"/>
  <path class="fil0" d="M3101 7647c44,-11 62,11 87,43 -484,502 -746,755 -937,1448 -112,404 -131,202 -458,100 -292,-91 -190,-124 -4,-379 261,-377 826,-1022 1230,-1183l82 -28zm5711 1714c-103,-120 -50,-309 -153,-534 -194,-423 -503,-779 -812,-1118 -372,-409 606,222 692,291 359,292 712,957 882,1065 149,-113 -45,-791 -143,-956 -535,-903 -781,-1031 -1774,-1317 -1025,-295 147,-251 510,-143 507,151 822,403 1238,700 658,470 -340,-1082 -1443,-1242 -369,-53 -592,-6 -973,-126 535,-382 1614,59 1738,-127 -102,-243 -1050,-434 -1316,-415 -742,53 -1268,552 -1424,576 -32,-101 558,-520 675,-565 162,-63 736,-275 158,-283 -133,-2 -672,179 -759,246 -158,121 -359,525 -478,430 -196,-156 -209,-375 -598,-579 -133,-70 -203,-65 -303,-168 -48,-50 -600,-67 -565,34 46,131 483,259 672,405 219,168 613,516 23,167 -662,-392 -1362,-437 -2030,-20 -603,377 534,90 765,90 432,0 756,99 1108,347 -359,131 -1099,-494 -2344,457 -226,173 -312,338 -433,587l-89 199c-31,78 102,27 125,-4 481,-444 1490,-965 2151,-799 359,90 -352,247 -416,264 -519,135 -568,130 -995,446 -296,219 -551,446 -755,755 -137,225 -281,509 -345,765l-40 241c-54,236 -122,-21 -78,491 318,34 208,182 217,545 15,771 -43,1285 -106,2039 -28,331 -150,1548 192,1713 449,216 2376,-39 2587,-502 152,-335 -220,-401 -492,-342 -311,67 -1228,357 -1474,283 -379,-113 -221,-957 -194,-1288 18,-220 91,-1215 154,-1365 74,-62 143,278 343,-492 121,-467 141,-657 398,-1092 14,-21 588,-856 546,-520 -10,83 -165,233 -232,362 -310,729 -359,1763 50,2460 262,446 239,-304 239,-448 0,-93 -3,-185 -7,-278 -20,-843 78,-1077 538,-1765 215,-311 1048,-1484 1396,-1515 329,-29 917,1150 1018,1435 33,107 48,188 67,297 47,576 73,847 -78,1417 -44,165 -17,370 -113,486 -60,73 -125,501 193,63 162,-223 283,-396 370,-662 119,-363 63,182 54,236 -63,388 -110,568 -247,931 -53,141 -73,396 -133,591 -89,294 -484,1562 21,1640 482,75 558,-1115 633,-1440 78,-333 151,-682 238,-1011 48,-93 153,-148 179,8 86,519 111,712 278,1224 99,302 250,1342 672,1218 323,-94 432,-610 524,-887 97,-291 184,-590 298,-875 48,-112 307,-976 340,-993 85,-42 61,53 86,183 113,604 176,1090 333,1696 76,292 84,898 426,994l106 14c538,-1 28,-1412 -51,-1752 -171,-729 -278,-1413 -379,-2151 -35,-257 -149,-910 -558,-724 -360,164 -448,942 -509,1287 -52,296 -164,361 -224,640 -48,224 -118,345 -151,604 56,-120 -47,94 -65,145 -277,699 -323,170 -407,-233l-43 -203c-131,-511 -189,-1118 -311,-1620 -61,-252 -155,-647 -477,-602 -427,128 -317,532 -406,-417 -73,-660 -558,-1715 433,-370 509,694 831,1155 1039,2005 238,970 390,-813 222,-1125z"/>
  <path class="fil1 str0" d="M24897 9081c-1879,711 -2781,2561 -1439,4238 1673,2092 5313,147 4068,-2468 -1009,-2118 -4659,-1067 -3860,1408 563,1743 3172,1679 3369,-218 159,-1538 -1829,-2387 -2600,-979 -505,922 187,1961 1254,1686 1052,-271 838,-1787 -119,-1609 -737,137 -532,1258 -40,809 74,-68 242,-284 270,-50 62,508 -1147,572 -989,-376 160,-956 1696,-979 1746,353 50,1344 -1996,1631 -2467,135 -461,-1464 1680,-2609 2833,-1220 1141,1375 -546,3745 -2554,2644 -2030,-1114 -833,-4597 1883,-3862 1087,294 1790,1270 1642,2400 -17,128 -176,1253 226,961 473,-343 378,-1562 218,-2039 -364,-1088 -1430,-1774 -2537,-1917 -303,-39 -615,11 -904,104z"/>
  <path class="fil1" d="M18065 9738c1969,1052 820,3065 1264,3286 414,206 497,-1194 481,-1425 -183,-2685 -3993,-3805 -5350,-960 -711,1490 314,3431 2039,3535 1844,111 3238,-1622 2333,-3381 -1010,-1964 -4284,-1121 -3890,1213 310,1836 3230,2081 3466,12 185,-1620 -2199,-2393 -2723,-750 -336,1054 781,1955 1667,1295 726,-541 74,-1706 -564,-1274 -658,446 469,799 -118,781 -736,-22 -677,-1229 221,-1183 1098,56 1488,1632 324,2037 -1282,446 -2400,-1015 -1565,-2111 931,-1222 2964,-561 2978,1000 12,1349 -1455,2327 -2757,1705 -2429,-1160 -719,-5147 2193,-3779z"/>
  <path class="fil0" d="M12966 9813c1446,732 -312,1845 -763,1461 -257,-219 -207,-993 -105,-1289 145,-423 550,-297 869,-172zm1039 225c-325,-609 -710,-841 -1411,-931 -338,-44 -976,-95 -1039,361 -37,266 -5,832 -25,1156 -26,416 -79,804 -98,1239 -11,248 -71,1627 94,1771 207,182 501,-146 520,-430 22,-322 -139,-1194 241,-1260 474,-83 638,33 1136,-297 515,-341 753,-1014 582,-1610z"/>
  <path class="fil0" d="M21725 11144c-274,188 -913,448 -979,-92 -35,-347 -104,-1228 332,-1343 609,-161 1476,660 823,1293l-175 142zm-1515 2501c143,74 397,41 425,-194 39,-326 -131,-1324 218,-1476 353,-154 698,9 1231,-356 812,-593 802,-1238 243,-2023 -307,-430 -921,-504 -1407,-494 -708,16 -628,232 -679,835 -38,444 -231,3495 -32,3707z"/>
  <path class="fil0 str1" d="M5513 8688c32,-153 127,-676 -34,-763 -327,-176 -374,252 -421,474 -58,271 -95,550 -128,825 -37,244 -100,317 -127,613 -53,577 -278,3369 -25,3714 228,311 881,412 897,-312 11,-530 -221,-1205 -259,-1803 -32,-713 -22,-2055 98,-2749z"/>
 </g>
</svg>
